{"accessors" : [{"bufferView" : 0, "byteOffset" : 0, "componentType" : 5123, "count" : 2196, "type" : "SCALAR", "max" : [1463], "min" : [0]}, {"bufferView" : 1, "byteOffset" : 0, "componentType" : 5126, "count" : 1464, "type" : "VEC3", "max" : [0.3617197573184967, 1.9924743175506592, 1.5466338396072388], "min" : [-0.3617197573184967, 0.10382651537656784, -0.8557987213134766], "name" : "POSITION"}, {"bufferView" : 1, "byteOffset" : 12, "componentType" : 5126, "count" : 1464, "type" : "VEC3", "max" : [0.9992161393165588, 0.9755989909172058, 0.973966658115387], "min" : [-0.9992161393165588, -0.9831757545471191, -0.9894643425941467], "name" : "NORMAL"}, {"bufferView" : 1, "byteOffset" : 24, "componentType" : 5126, "count" : 1464, "type" : "VEC2", "max" : [0.9998641610145569, 1.9905056953430176], "min" : [0.005108163226395845, 1.1049420833587646], "name" : "TEXCOORD_0"}, {"bufferView" : 0, "byteOffset" : 4392, "componentType" : 5123, "count" : 372, "type" : "SCALAR", "max" : [247], "min" : [0]}, {"bufferView" : 2, "byteOffset" : 0, "componentType" : 5126, "count" : 248, "type" : "VEC3", "max" : [0.20323362946510315, 0.5654805302619934, 0.6309896111488342], "min" : [-0.20323362946510315, 0.10382651537656784, -0.8271223902702332], "name" : "POSITION"}, {"bufferView" : 2, "byteOffset" : 12, "componentType" : 5126, "count" : 248, "type" : "VEC3", "max" : [0.9872094392776489, 0.41328516602516174, 0.908623993396759], "min" : [-0.9872094392776489, -0.4472917914390564, -0.9619168639183044], "name" : "NORMAL"}, {"bufferView" : 2, "byteOffset" : 24, "componentType" : 5126, "count" : 248, "type" : "VEC2", "max" : [0.7017297744750977, 1.9680087566375732], "min" : [0.0956161692738533, 1.0375398397445679], "name" : "TEXCOORD_0"}, {"bufferView" : 0, "byteOffset" : 5136, "componentType" : 5123, "count" : 252, "type" : "SCALAR", "max" : [167], "min" : [0]}, {"bufferView" : 3, "byteOffset" : 0, "componentType" : 5126, "count" : 168, "type" : "VEC3", "max" : [0.22372256219387054, 0.112177275121212, 0.697329044342041], "min" : [-0.22372256219387054, 0.00019344333850312978, -0.7680553793907166], "name" : "POSITION"}, {"bufferView" : 3, "byteOffset" : 12, "componentType" : 5126, "count" : 168, "type" : "VEC3", "max" : [0.9651097059249878, 0.5277272462844849, 0.8492833375930786], "min" : [-0.9651097059249878, -0.9999912977218628, -0.9947677254676819], "name" : "NORMAL"}, {"bufferView" : 3, "byteOffset" : 24, "componentType" : 5126, "count" : 168, "type" : "VEC2", "max" : [0.8314568996429443, 1.999864101409912], "min" : [0.0710350051522255, 1.0028560161590576], "name" : "TEXCOORD_0"}, {"bufferView" : 0, "byteOffset" : 5640, "componentType" : 5123, "count" : 450, "type" : "SCALAR", "max" : [299], "min" : [0]}, {"bufferView" : 4, "byteOffset" : 0, "componentType" : 5126, "count" : 300, "type" : "VEC3", "max" : [0.15098010003566742, 1.9522374868392944, 1.4370795488357544], "min" : [-0.15098010003566742, 0.44108185172080994, -0.9494307637214661], "name" : "POSITION"}, {"bufferView" : 4, "byteOffset" : 12, "componentType" : 5126, "count" : 300, "type" : "VEC3", "max" : [0.9968210458755493, 0.8603309392929077, 0.9808696508407593], "min" : [-1.0000042915344238, -0.8743357062339783, -0.9554567337036133], "name" : "NORMAL"}, {"bufferView" : 4, "byteOffset" : 24, "componentType" : 5126, "count" : 300, "type" : "VEC2", "max" : [0.989492654800415, 1.999864101409912], "min" : [0.00013588213187176734, 1.3986034393310547], "name" : "TEXCOORD_0"}, {"bufferView" : 0, "byteOffset" : 6540, "componentType" : 5123, "count" : 96, "type" : "SCALAR", "max" : [63], "min" : [0]}, {"bufferView" : 5, "byteOffset" : 0, "componentType" : 5126, "count" : 64, "type" : "VEC3", "max" : [0.07195455580949783, 1.4442086219787598, 1.593589186668396], "min" : [-0.07195455580949783, 1.2926363945007324, 1.4064635038375854], "name" : "POSITION"}, {"bufferView" : 5, "byteOffset" : 12, "componentType" : 5126, "count" : 64, "type" : "VEC3", "max" : [0.9984598755836487, 0.5326365828514099, 0.9192148447036743], "min" : [-0.9984598755836487, -0.9449706077575684, -0.7351890802383423], "name" : "NORMAL"}, {"bufferView" : 5, "byteOffset" : 24, "componentType" : 5126, "count" : 64, "type" : "VEC2", "max" : [0.9320917129516602, 1.8086605072021484], "min" : [0.8394473195075989, 1.7684991359710693], "name" : "TEXCOORD_0"}], "asset" : {"generator" : "Aspose.3D 24.9.1", "version" : "2.0"}, "buffers" : [{"uri" : "data:application/octet-stream;base64,", "byteLength" : 78564}], "bufferViews" : [{"buffer" : 0, "byteOffset" : 0, "byteLength" : 6732, "target" : 34963}, {"buffer" : 0, "byteOffset" : 6736, "byteLength" : 46848, "byteStride" : 32, "target" : 34962}, {"buffer" : 0, "byteOffset" : 53588, "byteLength" : 7936, "byteStride" : 32, "target" : 34962}, {"buffer" : 0, "byteOffset" : 61528, "byteLength" : 5376, "byteStride" : 32, "target" : 34962}, {"buffer" : 0, "byteOffset" : 66908, "byteLength" : 9600, "byteStride" : 32, "target" : 34962}, {"buffer" : 0, "byteOffset" : 76512, "byteLength" : 2048, "byteStride" : 32, "target" : 34962}], "materials" : [{"name" : "horse_base", "pbrMetallicRoughness" : {"baseColorFactor" : [0.21952611207962036, 0.10968571156263351, 0.05823931843042374, 1], "metallicFactor" : 0, "roughnessFactor" : 0.800000011920929}, "emissiveFactor" : [0, 0, 0], "alphaMode" : "OPAQUE", "doubleSided" : true}, {"name" : "horse_white", "pbrMetallicRoughness" : {"baseColorFactor" : [0.33528080582618713, 0.33528080582618713, 0.33528080582618713, 1], "metallicFactor" : 0, "roughnessFactor" : 0.800000011920929}, "emissiveFactor" : [0, 0, 0], "alphaMode" : "OPAQUE", "doubleSided" : true}, {"name" : "horse_hoof", "pbrMetallicRoughness" : {"baseColorFactor" : [0.07816343754529953, 0.060544099658727646, 0.043209053575992584, 1], "metallicFactor" : 0, "roughnessFactor" : 0.800000011920929}, "emissiveFactor" : [0, 0, 0], "alphaMode" : "OPAQUE", "doubleSided" : true}, {"name" : "horse_black", "pbrMetallicRoughness" : {"baseColorFactor" : [0.014999999664723873, 0.014999999664723873, 0.014999999664723873, 1], "metallicFactor" : 0, "roughnessFactor" : 0.800000011920929}, "emissiveFactor" : [0, 0, 0], "alphaMode" : "OPAQUE", "doubleSided" : true}, {"name" : "horse_grey", "pbrMetallicRoughness" : {"baseColorFactor" : [0.05973699316382408, 0.05973699316382408, 0.05973699316382408, 1], "metallicFactor" : 0, "roughnessFactor" : 0.800000011920929}, "emissiveFactor" : [0, 0, 0], "alphaMode" : "OPAQUE", "doubleSided" : true}], "meshes" : [{"primitives" : [{"attributes" : {"POSITION" : 1, "NORMAL" : 2, "TEXCOORD_0" : 3}, "indices" : 0, "material" : 0, "mode" : 4}, {"attributes" : {"POSITION" : 5, "NORMAL" : 6, "TEXCOORD_0" : 7}, "indices" : 4, "material" : 1, "mode" : 4}, {"attributes" : {"POSITION" : 9, "NORMAL" : 10, "TEXCOORD_0" : 11}, "indices" : 8, "material" : 2, "mode" : 4}, {"attributes" : {"POSITION" : 13, "NORMAL" : 14, "TEXCOORD_0" : 15}, "indices" : 12, "material" : 3, "mode" : 4}, {"attributes" : {"POSITION" : 17, "NORMAL" : 18, "TEXCOORD_0" : 19}, "indices" : 16, "material" : 4, "mode" : 4}]}], "nodes" : [{"mesh" : 0, "name" : "horse"}], "scene" : 0, "scenes" : [{"nodes" : [0]}]}